<svg width="20" height="20" viewBox="0 0 20 20" fill="none" xmlns="http://www.w3.org/2000/svg">
<g clip-path="url(#clip0_102_5319)">
<path fill-rule="evenodd" clip-rule="evenodd" d="M8.33329 15.001V17.501C8.33329 17.9612 8.70639 18.3343 9.16663 18.3343H10.8333C11.2935 18.3343 11.6666 17.9612 11.6666 17.501V15.001H13.3333V17.501C13.3333 18.8817 12.214 20.001 10.8333 20.001H9.16663C7.78591 20.001 6.66663 18.8817 6.66663 17.501V15.001H8.33329Z" fill="#777E91"/>
<path fill-rule="evenodd" clip-rule="evenodd" d="M12.5 11.0721L13.1243 10.5717C14.2707 9.65265 15 8.24588 15 6.66764C15 3.90622 12.7615 1.66764 10 1.66764C7.23862 1.66764 5.00004 3.90622 5.00004 6.66764C5.00004 8.24588 5.72934 9.65265 6.87582 10.5717L7.50004 11.0721V13.3343C7.50004 13.7945 7.87314 14.1676 8.33337 14.1676H11.6667C12.1269 14.1676 12.5 13.7945 12.5 13.3343V11.0721ZM14.1667 11.8721V13.3343C14.1667 14.715 13.0474 15.8343 11.6667 15.8343H8.33337C6.95266 15.8343 5.83337 14.715 5.83337 13.3343V11.8721C4.30927 10.6504 3.33337 8.77296 3.33337 6.66764C3.33337 2.98574 6.31814 0.000976562 10 0.000976562C13.6819 0.000976562 16.6667 2.98574 16.6667 6.66764C16.6667 8.77296 15.6908 10.6504 14.1667 11.8721Z" fill="#777E91"/>
<path d="M8.92259 6.9118C8.59715 6.58637 8.06951 6.58637 7.74408 6.9118C7.41864 7.23724 7.41864 7.76488 7.74408 8.09031L9.16667 9.5129V14.1677H10.8333V9.5129L12.2559 8.09031C12.5814 7.76488 12.5814 7.23724 12.2559 6.9118C11.9305 6.58637 11.4028 6.58637 11.0774 6.9118L10 7.98921L8.92259 6.9118Z" fill="#777E91"/>
</g>
<defs>
<clipPath id="clip0_102_5319">
<rect width="20" height="20" fill="white" transform="translate(0 0.000976562)"/>
</clipPath>
</defs>
</svg>
