<svg width="315" height="315" viewBox="0 0 315 315" fill="none" xmlns="http://www.w3.org/2000/svg">
<path d="M-0.00537109 0.646118H314.349V315H-0.00537109V0.646118Z" fill="white" fill-opacity="0.01"/>
<path d="M242.309 118.529H72.0341C64.8002 118.529 58.936 124.393 58.936 131.627V262.608C58.936 269.842 64.8002 275.706 72.0341 275.706H242.309C249.543 275.706 255.407 269.842 255.407 262.608V131.627C255.407 124.393 249.543 118.529 242.309 118.529Z" stroke="black" stroke-width="17.8024"/>
<path d="M111.328 184.019C118.562 184.019 124.426 178.155 124.426 170.921C124.426 163.687 118.562 157.823 111.328 157.823C104.094 157.823 98.2303 163.687 98.2303 170.921C98.2303 178.155 104.094 184.019 111.328 184.019Z" fill="black"/>
<path d="M203.015 184.019C210.249 184.019 216.113 178.155 216.113 170.921C216.113 163.687 210.249 157.823 203.015 157.823C195.781 157.823 189.917 163.687 189.917 170.921C189.917 178.155 195.781 184.019 203.015 184.019Z" fill="black"/>
<path d="M130.975 210.215C123.741 210.215 117.877 216.079 117.877 223.314C117.877 230.548 123.741 236.412 130.975 236.412V210.215ZM183.368 236.412C190.602 236.412 196.466 230.548 196.466 223.314C196.466 216.079 190.602 210.215 183.368 210.215V236.412ZM130.975 236.412H183.368V210.215H130.975V236.412Z" fill="black"/>
<path d="M157.172 66.1365V118.529" stroke="black" stroke-width="17.8024" stroke-linecap="round" stroke-linejoin="round"/>
<path d="M26.1909 170.921V223.313" stroke="black" stroke-width="17.8024" stroke-linecap="round" stroke-linejoin="round"/>
<path d="M288.152 170.921V223.313" stroke="black" stroke-width="17.8024" stroke-linecap="round" stroke-linejoin="round"/>
<path d="M157.172 66.1365C164.405 66.1365 170.27 60.2723 170.27 53.0384C170.27 45.8046 164.405 39.9404 157.172 39.9404C149.938 39.9404 144.073 45.8046 144.073 53.0384C144.073 60.2723 149.938 66.1365 157.172 66.1365Z" stroke="black" stroke-width="17.8024"/>
</svg>
