<svg width="25" height="25" viewBox="0 0 25 25" fill="none" xmlns="http://www.w3.org/2000/svg">
<path d="M6.16675 22.8334V4.83337C6.16675 4.56337 6.16675 4.28337 6.23675 4.01337C6.30675 3.74337 6.43675 3.49337 6.63675 3.29337C6.82675 3.09337 7.07675 2.97337 7.33675 2.90337C7.62675 2.83337 8.89675 2.83337 9.16675 2.83337H16.1667C16.4367 2.83337 16.7167 2.83337 16.9867 2.90337C17.2567 2.97337 17.5067 3.10337 17.7067 3.30337C17.9067 3.49337 18.0267 3.74337 18.0967 4.00337C18.1667 4.28337 18.1667 4.56337 18.1667 4.83337V22.8334H6.16675Z" stroke="#2851E3" stroke-width="2" stroke-linecap="round" stroke-linejoin="round"/>
<path d="M2.16677 14.8334V20.8334C2.16677 21.9334 3.06677 22.8334 4.16677 22.8334H6.16677V12.8334H4.16677C3.89677 12.8334 3.61677 12.8334 3.34677 12.9034C3.07677 12.9734 2.82677 13.1034 2.62677 13.3034C2.43677 13.4934 2.30677 13.7434 2.23677 14.0134C2.18032 14.2829 2.15682 14.5582 2.16677 14.8334Z" stroke="#2851E3" stroke-width="2" stroke-linecap="round" stroke-linejoin="round"/>
<path d="M20.9867 9.9034C20.7173 9.84695 20.4419 9.82344 20.1667 9.8334H18.1667V22.8334H20.1667C20.6972 22.8334 21.2059 22.6227 21.581 22.2476C21.956 21.8725 22.1667 21.3638 22.1667 20.8334V11.8334C22.1667 11.5534 22.1667 11.2834 22.0967 11.0134C22.0267 10.7434 21.8967 10.4934 21.6967 10.2934C21.5067 10.1034 21.2567 9.9734 20.9867 9.9034V9.9034Z" stroke="#2851E3" stroke-width="2" stroke-linecap="round" stroke-linejoin="round"/>
<path d="M10.1667 6.83337H14.1667" stroke="#2851E3" stroke-width="2" stroke-linecap="round" stroke-linejoin="round"/>
<path d="M10.1667 10.8334H14.1667" stroke="#2851E3" stroke-width="2" stroke-linecap="round" stroke-linejoin="round"/>
<path d="M10.1667 14.8334H14.1667" stroke="#2851E3" stroke-width="2" stroke-linecap="round" stroke-linejoin="round"/>
<path d="M10.1667 18.8334H14.1667" stroke="#2851E3" stroke-width="2" stroke-linecap="round" stroke-linejoin="round"/>
</svg>
