<svg width="24" height="25" viewBox="0 0 24 25" fill="none" xmlns="http://www.w3.org/2000/svg">
<path d="M20.8401 5.25001C20.3294 4.73901 19.7229 4.33366 19.0555 4.05709C18.388 3.78053 17.6726 3.63818 16.9501 3.63818C16.2276 3.63818 15.5122 3.78053 14.8448 4.05709C14.1773 4.33366 13.5709 4.73901 13.0601 5.25001L12.0001 6.31001L10.9401 5.25001C9.90843 4.21832 8.50915 3.63872 7.05012 3.63872C5.59109 3.63872 4.19181 4.21832 3.16012 5.25001C2.12843 6.2817 1.54883 7.68098 1.54883 9.14001C1.54883 10.599 2.12843 11.9983 3.16012 13.03L4.22012 14.09L12.0001 21.87L19.7801 14.09L20.8401 13.03C21.3511 12.5193 21.7565 11.9128 22.033 11.2454C22.3096 10.5779 22.4519 9.8625 22.4519 9.14001C22.4519 8.41752 22.3096 7.70211 22.033 7.03465C21.7565 6.36719 21.3511 5.76077 20.8401 5.25001V5.25001Z" stroke="#212121" stroke-width="2" stroke-linecap="round" stroke-linejoin="round"/>
</svg>
