<svg width="121" height="120" viewBox="0 0 121 120" fill="none" xmlns="http://www.w3.org/2000/svg">
<g clip-path="url(#clip0_42_171)">
<mask id="mask0_42_171" style="mask-type:luminance" maskUnits="userSpaceOnUse" x="0" y="0" width="121" height="120">
<path d="M0 -4.29153e-06H121V120H0V-4.29153e-06Z" fill="white"/>
</mask>
<g mask="url(#mask0_42_171)">
<path d="M63.6842 7.89473C63.6842 6.63844 63.181 5.43361 62.2853 4.54528C61.3895 3.65695 60.1747 3.15789 58.9079 3.15789C57.6412 3.15789 56.4263 3.65695 55.5305 4.54528C54.6348 5.43361 54.1316 6.63844 54.1316 7.89473V37.8947C54.1316 38.7323 53.7961 39.5355 53.199 40.1277C52.6018 40.7199 51.7919 41.0526 50.9474 41.0526C50.1029 41.0526 49.293 40.7199 48.6958 40.1277C48.0987 39.5355 47.7632 38.7323 47.7632 37.8947V7.89473C47.7632 6.63844 47.26 5.43361 46.3642 4.54528C45.4685 3.65695 44.2536 3.15789 42.9869 3.15789C41.7201 3.15789 40.5052 3.65695 39.6095 4.54528C38.7138 5.43361 38.2105 6.63844 38.2105 7.89473V37.8947C38.2105 38.7323 37.8751 39.5355 37.2779 40.1277C36.6808 40.7199 35.8708 41.0526 35.0263 41.0526C34.1818 41.0526 33.3719 40.7199 32.7748 40.1277C32.1776 39.5355 31.8421 38.7323 31.8421 37.8947V7.89473C31.8421 6.63844 31.3389 5.43361 30.4432 4.54528C29.5474 3.65695 28.3326 3.15789 27.0658 3.15789C25.799 3.15789 24.5842 3.65695 23.6884 4.54528C22.7927 5.43361 22.2895 6.63844 22.2895 7.89473V36.3158C22.2895 36.7168 22.3564 37.1021 22.4519 37.4747C22.3492 38.1363 22.2949 38.8044 22.2895 39.4737C22.2895 46.7874 27.8619 58.2853 35.0263 59.8168V108.947C35.0263 111.041 35.865 113.049 37.3579 114.53C38.8508 116.01 40.8756 116.842 42.9869 116.842C45.0981 116.842 47.1229 116.01 48.6158 114.53C50.1087 113.049 50.9474 111.041 50.9474 108.947V59.8168C58.1119 58.2853 63.6842 46.7874 63.6842 39.4737C63.6842 38.7916 63.6174 38.1284 63.5218 37.4747C63.6174 37.1021 63.6842 36.7168 63.6842 36.3158V7.89473ZM90.75 3.15789C90.4189 3.15789 90.1004 3.21789 89.7756 3.25578C89.5719 3.2242 89.3713 3.15789 89.1579 3.15789C82.124 3.15789 73.2369 20.4537 73.2369 37.8947C73.2369 52.6042 77.2967 64.9295 82.7895 68.4379V108.947C82.7895 111.041 83.6282 113.049 85.1211 114.53C86.614 116.01 88.6388 116.842 90.75 116.842C92.8613 116.842 94.8861 116.01 96.379 114.53C97.8718 113.049 98.7105 111.041 98.7105 108.947V11.0526C98.7105 8.95881 97.8718 6.95075 96.379 5.4702C94.8861 3.98965 92.8613 3.15789 90.75 3.15789Z" fill="#2851E3"/>
</g>
</g>
<defs>
<clipPath id="clip0_42_171">
<rect width="121" height="120" fill="white"/>
</clipPath>
</defs>
</svg>
